# xmcd CD database file
#
# Track frame offsets:
#	150
#	18734
#	40950
#	57175
#	73809
#	91847
#	106672
#	127359
#	139827
#	152076
#	165324
#
# Disc length: 2453 seconds
#
# Revision: 1
# Processed by: cddbd v1.5.1PL0 Copyright (c) Steve Scherf et al.
# Submitted via: CDex 1.51
#
DISCID=9409930b
DTITLE=The Sundogs - Bon Temps Noel
DYEAR=1999
DGENRE=Christmas
TTITLE0=The Little Rub-Board Boy
TTITLE1=God Rest Ye Merry Gentlemen
TTITLE2=Silent Night (featuring Maria Muldaur)
TTITLE3=Good King Wenceslas
TTITLE4=What Child Is This
TTITLE5=We Wish You A Merry Christmas
TTITLE6=Christmas Bells On The Bayou
TTITLE7=Joy To The World
TTITLE8=Away In A Manger
TTITLE9=Hark The Hearld Angels Sing
TTITLE10=The Cherry Tree Carol
EXTD=YEAR: 1999
EXTT0=
EXTT1=
EXTT2=
EXTT3=
EXTT4=
EXTT5=
EXTT6=
EXTT7=
EXTT8=
EXTT9=
EXTT10=
PLAYORDER=
